PathFileType	4	(X/Y/Z)	1H_rest_fast_right.trc
DataRate	CameraRate	NumFrames	NumMarkers	Units	OrigDataRate	OrigDataStartFrame	OrigNumFrames
250.00	250.00	14	18	mm	250.00	1	29078
Frame#	Time	c7	r_should	l_should	clavicle	r_upa	r_elb_l	r_elb_m	r_low	r_wri_l	r_wri_m	r_met	l_upa	l_elb_l	l_elb_m	l_low	l_wri_l	l_wri_m	l_met
	X1	Y1	Z1	X2	Y2	Z2	X3	Y3	Z3	X4	Y4	Z4	X5	Y5	Z5	X6	Y6	Z6	X7	Y7	Z7	X8	Y8	Z8	X9	Y9	Z9	X10	Y10	Z10	X11	Y11	Z11	X12	Y12	Z12	X13	Y13	Z13	X14	Y14	Z14	X15	Y15	Z15	X16	Y16	Z16	X17	Y17	Z17	X18	Y18	Z18
1	0.00000	653.17896	1422.36047	263.21588	733.14062	1354.72632	401.86060	679.62079	1374.83228	87.86882	771.56775	1274.73926	232.21326	766.37970	1142.62903	451.14154	776.67999	1050.32092	461.98572	697.96283	1017.12225	420.99359	805.49561	864.33649	443.01929	808.11902	796.03790	413.73569	757.05078	780.76715	464.76505	856.94672	730.08252	432.75949	670.30792	1184.80493	13.75025	683.38641	1075.59827	4.68624	629.86096	1039.91077	66.18961	719.20001	909.63214	2.21246	750.38342	837.41821	30.46393	680.92664	815.75568	19.12532	774.08319	750.85651	0.58048
2	0.00400	653.12231	1422.37598	263.19720	733.06580	1354.79529	401.85602	679.56641	1374.81567	87.86340	771.50800	1274.74329	232.23561	766.25214	1142.78491	451.46375	776.49750	1050.49536	462.46017	697.92010	1017.21881	421.36865	805.66608	864.67828	443.05811	808.33167	796.43896	413.49237	757.36914	780.88281	464.52634	857.39447	730.59424	432.30856	670.25427	1184.78198	13.75793	683.33057	1075.57800	4.69680	629.75970	1039.86743	66.17168	719.12408	909.60516	2.23421	750.26251	837.37323	30.44817	680.80603	815.71338	19.08340	773.97430	750.81860	0.60658
3	0.00800	653.06622	1422.38513	263.18890	732.99774	1354.85754	401.85944	679.50299	1374.79541	87.87063	771.45349	1274.75366	232.25638	766.11841	1142.93848	451.77823	776.30975	1050.66626	462.93225	697.86090	1017.30725	421.78891	805.82617	865.01697	443.09576	808.52747	796.82587	413.24026	757.69299	780.99493	464.28357	857.84033	731.11414	431.85358	670.19623	1184.75830	13.76853	683.27472	1075.55481	4.71644	629.65369	1039.81946	66.16707	719.04498	909.58124	2.25830	750.14941	837.31934	30.44981	680.68732	815.64709	19.07865	773.86700	750.78760	0.63601
4	0.01200	653.00714	1422.38232	263.19672	732.92676	1354.91492	401.86633	679.43713	1374.77405	87.87677	771.39948	1274.76794	232.27417	765.97852	1143.10400	452.08914	776.10773	1050.83252	463.39822	697.77441	1017.41101	422.26868	805.96472	865.36005	443.12723	808.74579	797.24060	412.99625	758.04065	781.13812	464.06937	858.29034	731.65607	431.39862	670.13562	1184.73645	13.77887	683.21222	1075.53748	4.73517	629.55774	1039.77808	66.19042	718.96393	909.55743	2.28705	750.04608	837.27234	30.47697	680.58783	815.58215	19.11032	773.75958	750.75433	0.67483
5	0.01600	652.94910	1422.38074	263.20197	732.85449	1354.97339	401.87320	679.37054	1374.75244	87.88436	771.34680	1274.78699	232.29469	765.83624	1143.27368	452.39896	775.90204	1051.00427	463.85779	697.67303	1017.54785	422.78989	806.09998	865.71619	443.15759	809.02283	797.71484	412.79126	758.41522	781.36316	463.88992	858.73956	732.21185	430.94937	670.07410	1184.71362	13.79771	683.15161	1075.51660	4.76104	629.48273	1039.76477	66.23790	718.88232	909.53027	2.31797	749.96021	837.23682	30.53677	680.51117	815.53149	19.17820	773.65070	750.71448	0.71770
6	0.02000	652.89349	1422.38501	263.21054	732.78259	1355.03394	401.88004	679.30444	1374.73364	87.88480	771.29004	1274.79846	232.31653	765.69269	1143.44080	452.70914	775.70642	1051.18604	464.31458	697.57104	1017.71356	423.33984	806.25055	866.08948	443.18784	809.36444	798.25439	412.62091	758.80157	781.65967	463.72882	859.20306	732.75519	430.48834	670.01251	1184.68652	13.81845	683.09570	1075.49084	4.79148	629.43481	1039.77087	66.29736	718.79828	909.49603	2.35421	749.89325	837.20813	30.62105	680.45605	815.50177	19.27671	773.54449	750.66650	0.76239
7	0.02400	652.83582	1422.39392	263.22342	732.71454	1355.08984	401.88007	679.24115	1374.71484	87.88602	771.23218	1274.80078	232.33659	765.54071	1143.59790	453.03403	775.51398	1051.37280	464.77493	697.49158	1017.90692	423.88666	806.39746	866.45819	443.22351	809.70361	798.79303	412.47354	759.18927	781.95026	463.55835	859.67657	733.29956	430.01917	669.95807	1184.66064	13.83709	683.04016	1075.46179	4.82177	629.40479	1039.77319	66.35538	718.71735	909.45697	2.39567	749.83679	837.17871	30.71786	680.40088	815.49707	19.36381	773.44391	750.62274	0.81353
8	0.02800	652.77356	1422.40308	263.22391	732.64398	1355.14771	401.87631	679.18768	1374.69910	87.88126	771.17767	1274.79932	232.36076	765.39130	1143.74988	453.36426	775.32324	1051.55615	465.23230	697.43457	1018.08606	424.38757	806.54004	866.82019	443.26242	809.98566	799.29492	412.28806	759.55548	782.18658	463.36673	860.14777	733.86359	429.55917	669.91315	1184.63550	13.85223	682.99066	1075.43225	4.85273	629.37067	1039.78162	66.39639	718.64581	909.42181	2.43504	749.77264	837.15643	30.78275	680.33160	815.50122	19.41294	773.34802	750.57593	0.85808
9	0.03200	652.71222	1422.41821	263.20596	732.57416	1355.21411	401.86954	679.13379	1374.68530	87.86961	771.12036	1274.80933	232.37910	765.24542	1143.90308	453.69818	775.12549	1051.74377	465.69238	697.35120	1018.25452	424.87430	806.68549	867.19025	443.29559	810.25201	799.78162	412.05960	759.90332	782.37939	463.12537	860.61267	734.46399	429.10883	669.87134	1184.61365	13.86593	682.94348	1075.40039	4.88318	629.32635	1039.76685	66.40833	718.57764	909.39209	2.47270	749.68842	837.12469	30.81233	680.24481	815.49811	19.41481	773.26068	750.53241	0.90341
10	0.03600	652.64819	1422.44080	263.17703	732.50439	1355.29102	401.85880	679.07166	1374.66895	87.85032	771.06421	1274.82458	232.39758	765.10999	1144.05322	454.01688	774.91827	1051.93347	466.13910	697.24036	1018.40546	425.36194	806.83331	867.56482	443.32318	810.51215	800.27020	411.83069	760.25153	782.55164	462.83545	861.05341	735.08813	428.66177	669.82318	1184.58887	13.88023	682.89154	1075.36951	4.91364	629.25104	1039.73010	66.40158	718.51019	909.35889	2.50719	749.59015	837.08276	30.81007	680.14081	815.46826	19.38924	773.17389	750.49152	0.94783
11	0.04000	652.59210	1422.45642	263.15082	732.44489	1355.36340	401.84537	679.01129	1374.64929	87.83803	771.01379	1274.83215	232.40671	764.99231	1144.20374	454.31644	774.72174	1052.11975	466.57764	697.11566	1018.53693	425.84717	806.99792	867.95093	443.34241	810.75812	800.75073	411.59207	760.59735	782.72662	462.51489	861.52582	735.70789	428.19434	669.77252	1184.55481	13.89270	682.84296	1075.33960	4.94133	629.15814	1039.67859	66.39973	718.44751	909.31940	2.54713	749.48486	837.02985	30.80213	680.02850	815.40570	19.36362	773.08868	750.44269	0.98945
12	0.04400	652.53601	1422.46155	263.12350	732.38251	1355.42761	401.83011	678.95233	1374.62109	87.82878	770.96539	1274.83484	232.40797	764.87683	1144.35742	454.62280	774.52625	1052.29810	467.01541	697.00085	1018.65515	426.34378	807.16559	868.34058	443.35126	811.03058	801.23651	411.37057	760.95959	782.94684	462.19769	862.02130	736.32172	427.71436	669.71643	1184.51270	13.90718	682.79486	1075.30383	4.96677	629.06879	1039.61658	66.40896	718.38007	909.27484	2.58290	749.38965	836.97168	30.80728	679.92291	815.32587	19.36662	773.00677	750.39410	1.03263
13	0.04800	652.47797	1422.46228	263.10431	732.31665	1355.48560	401.82507	678.88855	1374.58582	87.81966	770.91895	1274.84131	232.41353	764.75464	1144.52039	454.93710	774.33838	1052.48206	467.45844	696.86731	1018.79480	426.90210	807.32385	868.73724	443.35397	811.35425	801.77759	411.15250	761.34192	783.21625	461.92465	862.54846	736.94373	427.22269	669.65967	1184.47083	13.92052	682.74213	1075.26550	4.99180	628.99664	1039.57263	66.43717	718.30499	909.22821	2.61984	749.30975	836.92029	30.84467	679.83362	815.26178	19.41698	772.92255	750.34601	1.07625
14	0.05200	652.41791	1422.46729	263.09341	732.25031	1355.55371	401.82428	678.82581	1374.55774	87.80872	770.86182	1274.85278	232.41356	764.62317	1144.69263	455.25357	774.13904	1052.68701	467.91235	696.73279	1018.97559	427.52161	807.46790	869.15033	443.35532	811.68408	802.34833	410.93735	761.74725	783.51843	461.71606	863.07941	737.58313	426.72342	669.59845	1184.43274	13.93418	682.68207	1075.22852	5.01727	628.95508	1039.54749	66.49110	718.22443	909.18500	2.65796	749.24878	836.88257	30.91579	679.76300	815.22327	19.50131	772.83099	750.30212	1.11683
